<svg xmlns="http://www.w3.org/2000/svg">
    <symbol id="fb" viewBox="0 0 24 24">
        <path
            d="m15.997 3.985h2.191v-3.816c-.378-.052-1.678-.169-3.192-.169-3.159 0-5.323 1.987-5.323
            5.639v3.361h-3.486v4.266h3.486v10.734h4.274v-10.733h3.345l.531-4.266h-3.877v-2.939c.001-1.233.333-2.077
            2.051-2.077z"
        />
    </symbol>

    <symbol id="tw" viewBox="0 0 512 512">
        <path
            d="M512,97.248c-19.04,8.352-39.328,13.888-60.48,16.576c21.76-12.992,38.368-33.408,46.176-58.016
            c-20.288,12.096-42.688,20.64-66.56,25.408C411.872,60.704,384.416,48,354.464,48c-58.112,0-104.896,47.168-104.896,104.992
            c0,8.32,0.704,16.32,2.432,23.936c-87.264-4.256-164.48-46.08-216.352-109.792c-9.056,15.712-14.368,33.696-14.368,53.056
            c0,36.352,18.72,68.576,46.624,87.232c-16.864-0.32-33.408-5.216-47.424-12.928c0,0.32,0,0.736,0,1.152
            c0,51.008,36.384,93.376,84.096,103.136c-8.544,2.336-17.856,3.456-27.52,3.456c-6.72,0-13.504-0.384-19.872-1.792
            c13.6,41.568,52.192,72.128,98.08,73.12c-35.712,27.936-81.056,44.768-130.144,44.768c-8.608,0-16.864-0.384-25.12-1.44
            C46.496,446.88,101.6,464,161.024,464c193.152,0,298.752-160,298.752-298.688c0-4.64-0.16-9.12-0.384-13.568
            C480.224,136.96,497.728,118.496,512,97.248z"
        />
    </symbol>

    <symbol id="gp" viewBox="0 0 96.828 96.827">
        <path
            d="M62.617,0H39.525c-10.29,0-17.413,2.256-23.824,7.552c-5.042,4.35-8.051,10.672-8.051,16.912
            c0,9.614,7.33,19.831,20.913,19.831c1.306,0,2.752-0.134,4.028-0.253l-0.188,0.457c-0.546,1.308-1.063,2.542-1.063,4.468
            c0,3.75,1.809,6.063,3.558,8.298l0.22,0.283l-0.391,0.027c-5.609,0.384-16.049,1.1-23.675,5.787
            c-9.007,5.355-9.707,13.145-9.707,15.404c0,8.988,8.376,18.06,27.09,18.06c21.76,0,33.146-12.005,33.146-23.863
            c0.002-8.771-5.141-13.101-10.6-17.698l-4.605-3.582c-1.423-1.179-3.195-2.646-3.195-5.364c0-2.672,1.772-4.436,3.336-5.992
            l0.163-0.165c4.973-3.917,10.609-8.358,10.609-17.964c0-9.658-6.035-14.649-8.937-17.048h7.663c0.094,0,0.188-0.026,0.266-0.077
            l6.601-4.15c0.188-0.119,0.276-0.348,0.214-0.562C63.037,0.147,62.839,0,62.617,0z M34.614,91.535
            c-13.264,0-22.176-6.195-22.176-15.416c0-6.021,3.645-10.396,10.824-12.997c5.749-1.935,13.17-2.031,13.244-2.031
            c1.257,0,1.889,0,2.893,0.126c9.281,6.605,13.743,10.073,13.743,16.678C53.141,86.309,46.041,91.535,34.614,91.535z
            M34.489,40.756c-11.132,0-15.752-14.633-15.752-22.468c0-3.984,0.906-7.042,2.77-9.351c2.023-2.531,5.487-4.166,8.825-4.166
            c10.221,0,15.873,13.738,15.873,23.233c0,1.498,0,6.055-3.148,9.22C40.94,39.337,37.497,40.756,34.489,40.756z"
        />
        <path
            d="M94.982,45.223H82.814V33.098c0-0.276-0.225-0.5-0.5-0.5H77.08c-0.276,0-0.5,0.224-0.5,0.5v12.125H64.473
            c-0.276,0-0.5,0.224-0.5,0.5v5.304c0,0.275,0.224,0.5,0.5,0.5H76.58V63.73c0,0.275,0.224,0.5,0.5,0.5h5.234
            c0.275,0,0.5-0.225,0.5-0.5V51.525h12.168c0.276,0,0.5-0.223,0.5-0.5v-5.302C95.482,45.446,95.259,45.223,94.982,45.223z"
        />
    </symbol>

    <symbol id="linkedin" viewBox="0 0 24 24">
        <path
            d="m23.994 24v-.001h.006v-8.802c0-4.306-.927-7.623-5.961-7.623-2.42 0-4.044 1.328-4.707 2.587h-.07v-2.185h-4.773v16.023h4.97v-7.934c0-2.089.396-4.109 2.983-4.109 2.549 0 2.587 2.384 2.587 4.243v7.801z"
        />
        <path d="m.396 7.977h4.976v16.023h-4.976z" />
        <path
            d="m2.882 0c-1.591 0-2.882 1.291-2.882 2.882s1.291 2.909 2.882 2.909 2.882-1.318 2.882-2.909c-.001-1.591-1.292-2.882-2.882-2.882z"
        />
    </symbol>

    <symbol id="arrow" viewBox="0 0 6 10">
        <path
            d="M433,2659.17a0.32,0.32,0,0,0,.1.23l0.516,0.5a0.357,0.357,0,0,0,.237.1,0.362,0.362,0,0,0,.237-0.1l4.8-4.67a0.308,0.308,0,0,0,0-.46l-4.8-4.67a0.362,0.362,0,0,0-.237-0.1,0.357,0.357,0,0,0-.237.1l-0.516.5a0.308,0.308,0,0,0,0,.46l4.052,3.94-4.052,3.94A0.339,0.339,0,0,0,433,2659.17Z"
            transform="translate(-433 -2650)"
        />
    </symbol>

    <symbol id="code" viewBox="0 0 522.468 522.469">
        <path
            d="M325.762,70.513l-17.706-4.854c-2.279-0.76-4.524-0.521-6.707,0.715c-2.19,1.237-3.669,3.094-4.429,5.568L190.426,440.53
			c-0.76,2.475-0.522,4.809,0.715,6.995c1.237,2.19,3.09,3.665,5.568,4.425l17.701,4.856c2.284,0.766,4.521,0.526,6.71-0.712
			c2.19-1.243,3.666-3.094,4.425-5.564L332.042,81.936c0.759-2.474,0.523-4.808-0.716-6.999
			C330.088,72.747,328.237,71.272,325.762,70.513z"
        />
        <path
            d="M166.167,142.465c0-2.474-0.953-4.665-2.856-6.567l-14.277-14.276c-1.903-1.903-4.093-2.857-6.567-2.857
			s-4.665,0.955-6.567,2.857L2.856,254.666C0.95,256.569,0,258.759,0,261.233c0,2.474,0.953,4.664,2.856,6.566l133.043,133.044
			c1.902,1.906,4.089,2.854,6.567,2.854s4.665-0.951,6.567-2.854l14.277-14.268c1.903-1.902,2.856-4.093,2.856-6.57
			c0-2.471-0.953-4.661-2.856-6.563L51.107,261.233l112.204-112.201C165.217,147.13,166.167,144.939,166.167,142.465z"
        />
        <path
            d="M519.614,254.663L386.567,121.619c-1.902-1.902-4.093-2.857-6.563-2.857c-2.478,0-4.661,0.955-6.57,2.857l-14.271,14.275
			c-1.902,1.903-2.851,4.09-2.851,6.567s0.948,4.665,2.851,6.567l112.206,112.204L359.163,373.442
			c-1.902,1.902-2.851,4.093-2.851,6.563c0,2.478,0.948,4.668,2.851,6.57l14.271,14.268c1.909,1.906,4.093,2.854,6.57,2.854
			c2.471,0,4.661-0.951,6.563-2.854L519.614,267.8c1.903-1.902,2.854-4.096,2.854-6.57
			C522.468,258.755,521.517,256.565,519.614,254.663z"
        />
    </symbol>

    <symbol id="mail" viewBox="0 0 479.058 479.058">
        <path
            d="m434.146 59.882h-389.234c-24.766 0-44.912 20.146-44.912 44.912v269.47c0 24.766 20.146 44.912 44.912
            44.912h389.234c24.766 0 44.912-20.146 44.912-44.912v-269.47c0-24.766-20.146-44.912-44.912-44.912zm0 29.941c2.034
            0 3.969.422 5.738 1.159l-200.355 173.649-200.356-173.649c1.769-.736 3.704-1.159 5.738-1.159zm0 299.411h-389.234c-8.26
            0-14.971-6.71-14.971-14.971v-251.648l199.778 173.141c2.822 2.441 6.316 3.655 9.81 3.655s6.988-1.213
            9.81-3.655l199.778-173.141v251.649c-.001 8.26-6.711 14.97-14.971 14.97z"
        />
    </symbol>

    <symbol id="a" xmlns="http://www.w3.org/2000/svg" viewBox="0 0 475.082 475.082">
        <path
            d="M473.371,433.11c-10.657-3.997-20.458-6.563-29.407-7.706c-8.945-0.767-15.516-2.95-19.701-6.567
            c-2.475-1.529-5.808-6.95-9.996-16.279c-7.806-15.604-13.989-29.786-18.555-42.537c-7.427-20.181-13.617-35.789-18.565-46.829
            c-10.845-25.311-19.982-47.678-27.401-67.092c-4.001-10.466-15.797-38.731-35.405-84.796L255.813,24.265l-3.142-5.996h-15.129
            h-21.414l-79.94,206.704L68.523,400.847c-5.33,9.896-9.9,16.372-13.706,19.417c-3.996,2.848-14.466,5.805-31.405,8.843
            c-11.042,2.102-18.654,3.812-22.841,5.141L0,456.812h5.996c16.37,0,32.264-1.334,47.679-3.997l13.706-2.279
            c53.868,3.806,87.082,5.708,99.642,5.708c0.381-1.902,0.571-4.476,0.571-7.706c0-5.715-0.094-11.231-0.287-16.563
            c-3.996-0.568-7.851-1.143-11.561-1.711c-3.711-0.575-6.567-1.047-8.565-1.431c-1.997-0.373-3.284-0.568-3.855-0.568
            c-14.657-2.094-24.46-5.14-29.407-9.134c-3.236-2.282-4.854-6.375-4.854-12.278c0-3.806,2.19-11.796,6.567-23.982
            c14.277-39.776,24.172-65.856,29.692-78.224l128.483,0.568l26.269,65.096l13.411,32.541c1.144,3.241,1.711,6.283,1.711,9.138
            s-1.14,5.428-3.426,7.707c-2.285,1.905-8.753,4.093-19.417,6.563l-37.404,7.994c-0.763,6.283-1.136,13.702-1.136,22.271
            l16.56-0.575l57.103-3.138c10.656-0.38,23.51-0.575,38.547-0.575c18.264,0,36.251,0.763,53.957,2.282
            c21.313,1.523,39.588,2.283,54.819,2.283c0.192-2.283,0.281-4.754,0.281-7.423C475.082,445.957,474.513,440.537,473.371,433.11z
             M251.245,270.941c-2.666,0-7.662-0.052-14.989-0.144c-7.327-0.089-18.649-0.233-33.973-0.425
            c-15.321-0.195-29.93-0.383-43.824-0.574l48.535-128.477c7.424,15.037,16.178,35.117,26.264,60.242
            c11.425,27.79,20.179,50.727,26.273,68.809L251.245,270.941z"
        />
    </symbol>

    <symbol id="lifebuoy" viewBox="0 0 512 512">
        <path
            d="M437.019,74.981C388.667,26.629,324.38,0,256,0S123.333,26.629,74.981,74.981C26.629,123.333,0,187.62,0,256
			s26.629,132.667,74.981,181.019C123.333,485.371,187.62,512,256,512s132.667-26.629,181.019-74.981
			C485.371,388.667,512,324.38,512,256S485.371,123.333,437.019,74.981z M59.229,358.409C43.209,327.753,34.133,292.919,34.133,256
			c0-36.919,9.076-71.753,25.095-102.408l81.416,40.709c-9.876,18.392-15.489,39.401-15.489,61.699s5.613,43.307,15.49,61.701
			L59.229,358.409z M256,34.133c36.919,0,71.753,9.076,102.408,25.095l-40.709,81.416c-18.392-9.876-39.401-15.489-61.699-15.489
			s-43.307,5.613-61.701,15.49l-40.709-81.416C184.247,43.209,219.081,34.133,256,34.133z M352.711,256
			c0,53.327-43.385,96.711-96.711,96.711S159.289,309.326,159.289,256s43.385-96.711,96.711-96.711
			C309.327,159.289,352.711,202.674,352.711,256z M256,477.867c-36.919,0-71.753-9.076-102.408-25.095l40.709-81.416
			c18.392,9.876,39.401,15.489,61.699,15.489s43.307-5.613,61.701-15.49l40.709,81.416C327.753,468.791,292.919,477.867,256,477.867
			z M371.355,317.701c9.877-18.393,15.49-39.402,15.49-61.701s-5.613-43.307-15.49-61.701l81.416-40.709
			c16.02,30.656,25.096,65.491,25.096,102.409c0,36.919-9.076,71.753-25.095,102.408L371.355,317.701z"
        />
    </symbol>

    <symbol id="point" viewBox="0 0 97.713 97.713">
        <path
            d="M48.855,0C29.021,0,12.883,16.138,12.883,35.974c0,5.174,1.059,10.114,3.146,14.684
            c8.994,19.681,26.238,40.46,31.31,46.359c0.38,0.441,0.934,0.695,1.517,0.695s1.137-0.254,1.517-0.695
            c5.07-5.898,22.314-26.676,31.311-46.359c2.088-4.57,3.146-9.51,3.146-14.684C84.828,16.138,68.69,0,48.855,0z M48.855,54.659
            c-10.303,0-18.686-8.383-18.686-18.686c0-10.304,8.383-18.687,18.686-18.687s18.686,8.383,18.686,18.687
            C67.542,46.276,59.159,54.659,48.855,54.659z"
        />
    </symbol>

    <symbol id="smartphone" viewBox="0 0 35 35">
        <path
            d="M25.302,0H9.698c-1.3,0-2.364,1.063-2.364,2.364v30.271C7.334,33.936,8.398,35,9.698,35h15.604
            c1.3,0,2.364-1.062,2.364-2.364V2.364C27.666,1.063,26.602,0,25.302,0z M15.004,1.704h4.992c0.158,0,0.286,0.128,0.286,0.287
            c0,0.158-0.128,0.286-0.286,0.286h-4.992c-0.158,0-0.286-0.128-0.286-0.286C14.718,1.832,14.846,1.704,15.004,1.704z M17.5,33.818
            c-0.653,0-1.182-0.529-1.182-1.183s0.529-1.182,1.182-1.182s1.182,0.528,1.182,1.182S18.153,33.818,17.5,33.818z M26.021,30.625
            H8.979V3.749h17.042V30.625z"
        />
    </symbol>

    <symbol id="line" viewBox="0 0 50 2">
        <path d="M775,916v-2h50v2H775" transform="translate(-775 -914)" />
    </symbol>
</svg>
