<svg
    xmlns="http://www.w3.org/2000/svg"
    width="0.564cm" height="0.423cm">
    <path fill-rule="evenodd"  fill="rgb(255, 255, 255)"
          d="M16.000,1.425 C15.411,1.659 14.772,1.828 14.112,1.893 C14.792,1.519 15.310,0.928 15.553,0.224 C14.924,0.572 14.213,0.824 13.472,0.956 C12.873,0.365 12.020,-0.000 11.076,-0.000 C9.259,-0.000 7.797,1.359 7.797,3.028 C7.797,3.262 7.827,3.496 7.878,3.722 C5.157,3.590 2.731,2.390 1.117,0.552 C0.832,1.003 0.670,1.519 0.670,2.081 C0.670,3.131 1.249,4.059 2.132,4.603 C1.594,4.584 1.086,4.443 0.650,4.218 C0.650,4.228 0.650,4.247 0.650,4.256 C0.650,5.728 1.777,6.947 3.279,7.228 C3.005,7.293 2.711,7.331 2.416,7.331 C2.203,7.331 2.000,7.312 1.797,7.284 C2.213,8.484 3.421,9.356 4.863,9.384 C3.736,10.200 2.325,10.678 0.792,10.678 C0.518,10.678 0.264,10.668 -0.000,10.640 C1.452,11.503 3.178,12.000 5.035,12.000 C11.066,12.000 14.365,7.387 14.365,3.384 C14.365,3.253 14.365,3.122 14.355,2.990 C14.995,2.559 15.553,2.025 16.000,1.425 Z"/>
</svg>
